<svg width="299" height="311" viewBox="0 0 299 311" fill="none" xmlns="http://www.w3.org/2000/svg">
<mask id="mask0_2195_11775" style="mask-type:alpha" maskUnits="userSpaceOnUse" x="5" y="4" width="287" height="301">
<path fill-rule="evenodd" clip-rule="evenodd" d="M145.731 6.10019C192.883 1.13036 246.435 6.33053 275.586 43.682C303.83 79.8717 287.067 129.71 277.176 174.525C267.826 216.889 259.116 262.475 222.239 285.39C182.691 309.966 131.978 310.316 89.5589 291.112C47.8083 272.21 18.5298 233.34 8.55157 188.648C-0.934163 146.163 13.7005 103.341 39.8623 68.527C65.7453 34.0838 102.856 10.6192 145.731 6.10019Z" fill="url(#paint0_linear_2195_11775)"/>
</mask>
<g mask="url(#mask0_2195_11775)">
<path fill-rule="evenodd" clip-rule="evenodd" d="M145.731 6.10019C192.883 1.13036 246.435 6.33053 275.586 43.682C303.83 79.8717 287.067 129.71 277.176 174.525C267.826 216.889 259.116 262.475 222.239 285.39C182.691 309.966 131.978 310.316 89.5589 291.112C47.8083 272.21 18.5298 233.34 8.55157 188.648C-0.934163 146.163 13.7005 103.341 39.8623 68.527C65.7453 34.0838 102.856 10.6192 145.731 6.10019Z" fill="#BDBDBD"/>
<path fill-rule="evenodd" clip-rule="evenodd" d="M145.731 6.10019C192.883 1.13036 246.435 6.33053 275.586 43.682C303.83 79.8717 287.067 129.71 277.176 174.525C267.826 216.889 259.116 262.475 222.239 285.39C182.691 309.966 131.978 310.316 89.5589 291.112C47.8083 272.21 18.5298 233.34 8.55157 188.648C-0.934163 146.163 13.7005 103.341 39.8623 68.527C65.7453 34.0838 102.856 10.6192 145.731 6.10019Z" fill="#BABABA"/>
<path fill-rule="evenodd" clip-rule="evenodd" d="M145.731 6.10019C192.883 1.13036 246.435 6.33053 275.586 43.682C303.83 79.8717 287.067 129.71 277.176 174.525C267.826 216.889 259.116 262.475 222.239 285.39C182.691 309.966 131.978 310.316 89.5589 291.112C47.8083 272.21 18.5298 233.34 8.55157 188.648C-0.934163 146.163 13.7005 103.341 39.8623 68.527C65.7453 34.0838 102.856 10.6192 145.731 6.10019Z" fill="url(#paint1_radial_2195_11775)"/>
</g>
<defs>
<linearGradient id="paint0_linear_2195_11775" x1="143.919" y1="5.47607" x2="154.921" y2="304.745" gradientUnits="userSpaceOnUse">
<stop stop-color="#FDAB01" stop-opacity="0.3"/>
<stop offset="1" stop-color="#FDAB01" stop-opacity="0"/>
</linearGradient>
<radialGradient id="paint1_radial_2195_11775" cx="0" cy="0" r="1" gradientUnits="userSpaceOnUse" gradientTransform="translate(252.366 47.513) rotate(124.827) scale(317.107 575.921)">
<stop stop-color="#FDAB01"/>
<stop offset="1" stop-color="#FDAB01" stop-opacity="0"/>
</radialGradient>
</defs>
</svg>
