<svg width="100" height="16" viewBox="0 0 100 16" fill="none" xmlns="http://www.w3.org/2000/svg">
<path d="M10.88 1.04V3.3H7.16V15H4.36V3.3H0.64V1.04H10.88ZM16.473 5.64C16.833 5.05333 17.2996 4.59333 17.873 4.26C18.4596 3.92667 19.1263 3.76 19.873 3.76V6.7H19.133C18.253 6.7 17.5863 6.90667 17.133 7.32C16.693 7.73333 16.473 8.45333 16.473 9.48V15H13.673V3.92H16.473V5.64ZM21.7889 9.42C21.7889 8.3 22.0089 7.30667 22.4489 6.44C22.9022 5.57333 23.5089 4.90667 24.2689 4.44C25.0422 3.97333 25.9022 3.74 26.8489 3.74C27.6756 3.74 28.3956 3.90667 29.0089 4.24C29.6356 4.57333 30.1356 4.99333 30.5089 5.5V3.92H33.3289V15H30.5089V13.38C30.1489 13.9 29.6489 14.3333 29.0089 14.68C28.3822 15.0133 27.6556 15.18 26.8289 15.18C25.8956 15.18 25.0422 14.94 24.2689 14.46C23.5089 13.98 22.9022 13.3067 22.4489 12.44C22.0089 11.56 21.7889 10.5533 21.7889 9.42ZM30.5089 9.46C30.5089 8.78 30.3756 8.2 30.1089 7.72C29.8422 7.22667 29.4822 6.85333 29.0289 6.6C28.5756 6.33333 28.0889 6.2 27.5689 6.2C27.0489 6.2 26.5689 6.32667 26.1289 6.58C25.6889 6.83333 25.3289 7.20667 25.0489 7.7C24.7822 8.18 24.6489 8.75333 24.6489 9.42C24.6489 10.0867 24.7822 10.6733 25.0489 11.18C25.3289 11.6733 25.6889 12.0533 26.1289 12.32C26.5822 12.5867 27.0622 12.72 27.5689 12.72C28.0889 12.72 28.5756 12.5933 29.0289 12.34C29.4822 12.0733 29.8422 11.7 30.1089 11.22C30.3756 10.7267 30.5089 10.14 30.5089 9.46ZM41.4336 12.42L44.2336 3.92H47.2136L43.1136 15H39.7136L35.6336 3.92H38.6336L41.4336 12.42ZM59.8363 9.22C59.8363 9.62 59.8096 9.98 59.7563 10.3H51.6563C51.7229 11.1 52.0029 11.7267 52.4963 12.18C52.9896 12.6333 53.5963 12.86 54.3163 12.86C55.3563 12.86 56.0963 12.4133 56.5363 11.52H59.5563C59.2363 12.5867 58.6229 13.4667 57.7163 14.16C56.8096 14.84 55.6963 15.18 54.3763 15.18C53.3096 15.18 52.3496 14.9467 51.4963 14.48C50.6563 14 49.9963 13.3267 49.5163 12.46C49.0496 11.5933 48.8162 10.5933 48.8162 9.46C48.8162 8.31333 49.0496 7.30667 49.5163 6.44C49.9829 5.57333 50.6363 4.90667 51.4763 4.44C52.3163 3.97333 53.2829 3.74 54.3763 3.74C55.4296 3.74 56.3696 3.96667 57.1963 4.42C58.0363 4.87333 58.6829 5.52 59.1363 6.36C59.6029 7.18667 59.8363 8.14 59.8363 9.22ZM56.9363 8.42C56.9229 7.7 56.6629 7.12667 56.1563 6.7C55.6496 6.26 55.0296 6.04 54.2963 6.04C53.6029 6.04 53.0163 6.25333 52.5363 6.68C52.0696 7.09333 51.7829 7.67333 51.6763 8.42H56.9363ZM65.43 0.2V15H62.63V0.2H65.43ZM79.4064 3.92V15H76.5864V13.6C76.2264 14.08 75.7531 14.46 75.1664 14.74C74.5931 15.0067 73.9664 15.14 73.2864 15.14C72.4197 15.14 71.6531 14.96 70.9864 14.6C70.3197 14.2267 69.7931 13.6867 69.4064 12.98C69.0331 12.26 68.8464 11.4067 68.8464 10.42V3.92H71.6464V10.02C71.6464 10.9 71.8664 11.58 72.3064 12.06C72.7464 12.5267 73.3464 12.76 74.1064 12.76C74.8797 12.76 75.4864 12.5267 75.9264 12.06C76.3664 11.58 76.5864 10.9 76.5864 10.02V3.92H79.4064ZM85.7191 0.2V15H82.9191V0.2H85.7191ZM99.6955 3.92V15H96.8755V13.6C96.5155 14.08 96.0421 14.46 95.4555 14.74C94.8821 15.0067 94.2555 15.14 93.5755 15.14C92.7088 15.14 91.9421 14.96 91.2755 14.6C90.6088 14.2267 90.0821 13.6867 89.6955 12.98C89.3221 12.26 89.1355 11.4067 89.1355 10.42V3.92H91.9355V10.02C91.9355 10.9 92.1555 11.58 92.5955 12.06C93.0355 12.5267 93.6355 12.76 94.3955 12.76C95.1688 12.76 95.7755 12.5267 96.2155 12.06C96.6555 11.58 96.8755 10.9 96.8755 10.02V3.92H99.6955Z" fill="#5F2EEA"/>
</svg>
