<svg width="25" height="25" viewBox="0 0 25 25" fill="none" xmlns="http://www.w3.org/2000/svg">
<path d="M1 14.4141C1 12.7572 2.34315 11.4141 4 11.4141H5.17687C5.97912 11.4141 6.70374 10.9347 7.01753 10.1963L10.3831 2.27725C10.6056 1.75387 11.1192 1.41406 11.6879 1.41406V1.41406C13.3847 1.41406 14.7015 2.89428 14.5041 4.57949L14.1337 7.73948C14.0293 8.63099 14.7259 9.41406 15.6235 9.41406H20.289C22.199 9.41406 23.6226 11.1751 23.2224 13.0427L21.5082 21.0426C21.2118 22.4259 19.9894 23.4141 18.5748 23.4141H4C2.34315 23.4141 1 22.0709 1 20.4141V14.4141Z" stroke="#14142B" stroke-width="2"/>
<path d="M7 10.4141V23.4141" stroke="#14142B" stroke-width="2"/>
</svg>
