<svg width="30" height="29" viewBox="0 0 30 29" fill="none" xmlns="http://www.w3.org/2000/svg">
<g clip-path="url(#clip0_313_4660)">
<path d="M5.30755 19.6003C5.53091 19.6749 5.71552 19.8351 5.82083 20.0458C5.92615 20.2564 5.94356 20.5002 5.86926 20.7237L4.98048 23.39C4.94701 23.5048 4.89072 23.6116 4.81499 23.7041C4.73926 23.7966 4.64565 23.8729 4.53975 23.9284C4.43385 23.9839 4.31785 24.0174 4.19868 24.0271C4.07951 24.0367 3.95963 24.0221 3.84621 23.9843C3.73279 23.9465 3.62817 23.8862 3.53859 23.807C3.44902 23.7278 3.37635 23.6314 3.32492 23.5235C3.2735 23.4155 3.24437 23.2983 3.23929 23.1789C3.23422 23.0595 3.25329 22.9402 3.29537 22.8283L4.18415 20.162C4.25878 19.9386 4.419 19.754 4.62963 19.6487C4.84027 19.5434 5.08409 19.526 5.30755 19.6003ZM22.1942 19.6003C22.4176 19.6749 22.6022 19.8351 22.7075 20.0458C22.8128 20.2564 22.8302 20.5002 22.7559 20.7237L21.8671 23.39C21.7862 23.6052 21.6251 23.7806 21.4176 23.8795C21.21 23.9784 20.9723 23.993 20.7542 23.9203C20.5361 23.8476 20.3547 23.6933 20.248 23.4897C20.1413 23.286 20.1177 23.049 20.182 22.8283L21.0708 20.162C21.1454 19.9386 21.3057 19.754 21.5163 19.6487C21.7269 19.5434 21.9707 19.526 22.1942 19.6003ZM8.86264 22.2666C9.08599 22.3412 9.2706 22.5015 9.37592 22.7121C9.48123 22.9227 9.49865 23.1665 9.42434 23.39L8.53557 26.0563C8.50209 26.1711 8.44581 26.2779 8.37008 26.3704C8.29435 26.463 8.20073 26.5392 8.09483 26.5947C7.98893 26.6502 7.87293 26.6838 7.75376 26.6934C7.63459 26.703 7.51471 26.6884 7.40129 26.6506C7.28788 26.6128 7.18325 26.5525 7.09368 26.4733C7.00411 26.3942 6.93144 26.2977 6.88001 26.1898C6.82858 26.0819 6.79946 25.9647 6.79438 25.8452C6.7893 25.7258 6.80838 25.6065 6.85046 25.4946L7.73923 22.8283C7.81386 22.605 7.97409 22.4203 8.18472 22.315C8.39535 22.2097 8.63917 22.1923 8.86264 22.2666ZM25.7493 22.2666C25.9726 22.3412 26.1573 22.5015 26.2626 22.7121C26.3679 22.9227 26.3853 23.1665 26.311 23.39L25.4222 26.0563C25.3413 26.2715 25.1802 26.4469 24.9726 26.5458C24.7651 26.6447 24.5274 26.6593 24.3093 26.5866C24.0912 26.5139 23.9098 26.3596 23.8031 26.156C23.6964 25.9523 23.6727 25.7153 23.7371 25.4946L24.6259 22.8283C24.7005 22.605 24.8607 22.4203 25.0714 22.315C25.282 22.2097 25.5258 22.1923 25.7493 22.2666ZM13.1199 20.0447C13.1937 19.8972 13.3072 19.7733 13.4475 19.6866C13.5878 19.6 13.7495 19.5541 13.9144 19.5541H15.692C15.8327 19.5542 15.9714 19.5877 16.0967 19.6519C16.2219 19.7161 16.3302 19.8092 16.4124 19.9234C16.4947 20.0376 16.5487 20.1697 16.5699 20.3088C16.5911 20.448 16.579 20.5902 16.5345 20.7237L16.0368 22.2204H17.4695C17.6367 22.2206 17.8005 22.268 17.942 22.3572C18.0835 22.4464 18.197 22.5736 18.2694 22.7244C18.3418 22.8751 18.3702 23.0432 18.3513 23.2094C18.3325 23.3756 18.2671 23.5331 18.1627 23.6638L14.6077 28.1076C14.4808 28.2652 14.304 28.3748 14.1065 28.4183C13.9089 28.4618 13.7024 28.4366 13.5211 28.3469C13.3398 28.2571 13.1946 28.1083 13.1093 27.9248C13.0241 27.7414 13.004 27.5344 13.0523 27.3379L13.6656 24.8867H12.1369C11.9853 24.8867 11.8363 24.8479 11.7039 24.7741C11.5716 24.7003 11.4603 24.5938 11.3807 24.4648C11.301 24.3359 11.2557 24.1887 11.249 24.0373C11.2423 23.8859 11.2744 23.7353 11.3423 23.5998L13.1199 20.0447ZM24.4108 7.15927C24.0417 5.29847 23.0869 3.60456 21.6862 2.32521C20.2854 1.04586 18.5121 0.248163 16.6256 0.0487637C14.739 -0.150636 12.8382 0.258716 11.2009 1.21697C9.56367 2.17522 8.27591 3.63211 7.52592 5.37462C6.68486 5.27773 5.83287 5.35352 5.02211 5.59736C4.21136 5.8412 3.4589 6.24794 2.81081 6.7927C2.16272 7.33746 1.63264 8.00876 1.25302 8.76551C0.873393 9.52226 0.65222 10.3485 0.603037 11.1937C0.553853 12.0389 0.677696 12.8853 0.966981 13.6809C1.25627 14.4766 1.70491 15.2049 2.28544 15.8211C2.86596 16.4374 3.56616 16.9287 4.34316 17.2649C5.12016 17.6011 5.95761 17.7752 6.80424 17.7765H23.6909C25.0438 17.7781 26.3467 17.2653 27.3357 16.3422C28.3247 15.419 28.9259 14.1545 29.0174 12.8047C29.1089 11.4549 28.684 10.1207 27.8286 9.07251C26.9733 8.02429 25.7515 7.34037 24.4108 7.15927Z" fill="#3A6AD5"/>
</g>
<defs>
<clipPath id="clip0_313_4660">
<rect width="28.4407" height="28.4407" fill="white" transform="translate(0.582153)"/>
</clipPath>
</defs>
</svg>
