<svg width="8" height="7" viewBox="0 0 8 7" fill="none" xmlns="http://www.w3.org/2000/svg">
<path fill-rule="evenodd" clip-rule="evenodd" d="M7.35102 2.67384L4.85102 0.168854C4.76102 0.0736643 4.63602 0.0185547 4.49602 0.0185547C4.22102 0.0185547 3.99602 0.244003 3.99602 0.519551C3.99602 0.65983 4.05102 0.78508 4.14102 0.875259L5.78602 2.52354H0.996017C0.721017 2.52354 0.496017 2.74899 0.496017 3.02453C0.496017 3.30008 0.721017 3.52553 0.996017 3.52553H5.79102L4.14602 5.17381C4.05602 5.26399 4.00102 5.38924 4.00102 5.52952C4.00102 5.80507 4.22602 6.03051 4.50102 6.03051C4.64102 6.03051 4.76602 5.9754 4.85602 5.88523L7.35602 3.38024C7.44602 3.29006 7.50102 3.16481 7.50102 3.02453C7.50102 2.88426 7.44102 2.76402 7.35102 2.67384Z" fill="#3A6AD5"/>
</svg>
