<svg width="14" height="13" viewBox="0 0 14 13" fill="none" xmlns="http://www.w3.org/2000/svg">
<path d="M11.3871 2.23719C11.3352 2.18561 11.2698 2.1499 11.1984 2.13426C11.1269 2.11862 11.0525 2.12369 10.9839 2.14888L2.537 5.22048C2.46415 5.24811 2.40143 5.29725 2.35718 5.36137C2.31292 5.4255 2.28922 5.50156 2.28922 5.57948C2.28922 5.65739 2.31292 5.73346 2.35718 5.79758C2.40143 5.8617 2.46415 5.91084 2.537 5.93847L6.22292 7.41284L7.6973 11.0988C7.725 11.1684 7.77248 11.2284 7.83388 11.2714C7.89529 11.3144 7.96793 11.3385 8.04285 11.3407C8.12044 11.3391 8.19573 11.314 8.25879 11.2688C8.32185 11.2235 8.36972 11.1602 8.39609 11.0872L11.4677 2.64033C11.4938 2.5724 11.5002 2.49844 11.4859 2.42706C11.4716 2.35568 11.4373 2.28983 11.3871 2.23719ZM8.04285 9.88164L6.97163 7.19399L8.81075 5.35486L8.26938 4.81349L6.4149 6.66798L3.7426 5.5814L10.4733 3.15099L8.04285 9.88164Z" fill="white"/>
</svg>
