<svg width="37" height="30" viewBox="0 0 37 30" fill="none" xmlns="http://www.w3.org/2000/svg">
<path d="M32.1133 12.8716C30.5386 13.4006 29.0024 13.9217 28.4882 14.1493C28.4802 14.1109 28.4802 14.1109 28.4802 14.1109L13.8342 19.2923C13.8342 19.2923 5.98964 21.691 5.80947 25.0585L25.8669 25.0469C27.7727 22.6434 28.8484 19.5304 28.713 16.1886C28.7017 15.7497 28.6519 15.3187 28.6021 14.8878C29.7779 14.5623 34.0566 13.1482 34.2821 11.5365C34.2821 11.5365 34.0563 12.1854 32.1133 12.8716ZM23.3239 16.5104L27.4166 14.9746C27.4166 14.9746 27.5856 17.7076 25.9437 18.4914L23.3239 16.5104Z" fill="white"/>
<path d="M15.0487 3.08821C10.8049 3.13095 7.03102 5.04153 4.53743 8.08923C2.87503 10.121 1.96413 12.6781 2.07053 15.3038C2.21398 18.684 4.11821 22.6197 13.4219 18.7533L14.8043 18.2643L12.1941 16.5219C12.1941 16.5219 13.2817 15.7735 14.9288 16.5533C16.5839 17.3715 18.2355 16.8264 18.2355 16.8264L23.1034 14.0056L20.6829 14.7111L15.1774 11.2057C16.4956 10.4091 18.3812 10.2164 20.3054 10.9785C22.2297 11.7405 25.434 12.6769 27.5165 12.082C27.6238 12.0195 27.7391 11.9954 27.8545 11.9714C28.6843 11.718 30.8677 11.2225 30.8677 11.2225C29.591 11.4487 28.0979 11.5996 27.7054 11.6414C25.7 6.64359 20.7488 3.10277 15.0872 3.08019L15.0487 3.08821Z" fill="white"/>
</svg>
