<svg width="49" height="48" viewBox="0 0 49 48" fill="none" xmlns="http://www.w3.org/2000/svg">
<g clip-path="url(#clip0_1643_10129)">
<path d="M17.9901 11.7061H10.9961C10.3488 11.7061 9.82422 12.2307 9.82422 12.8779C9.82422 13.5252 10.3488 14.0498 10.9961 14.0498H17.9901C18.6371 14.0498 19.162 13.5252 19.162 12.8779C19.162 12.2307 18.6371 11.7061 17.9901 11.7061Z" fill="#F79901"/>
<path d="M17.9901 16.3936H10.9961C10.3488 16.3936 9.82422 16.9182 9.82422 17.5654C9.82422 18.2127 10.3488 18.7373 10.9961 18.7373H17.9901C18.6371 18.7373 19.162 18.2127 19.162 17.5654C19.162 16.9182 18.6371 16.3936 17.9901 16.3936Z" fill="#F79901"/>
<path d="M17.9901 21.0815H10.9961C10.3488 21.0815 9.82422 21.6061 9.82422 22.2534C9.82422 22.9007 10.3488 23.4253 10.9961 23.4253H17.9901C18.6371 23.4253 19.162 22.9007 19.162 22.2534C19.162 21.6061 18.6371 21.0815 17.9901 21.0815Z" fill="#F79901"/>
<path d="M17.9901 25.7695H10.9961C10.3488 25.7695 9.82422 26.2941 9.82422 26.9414C9.82422 27.5887 10.3488 28.1133 10.9961 28.1133H17.9901C18.6371 28.1133 19.162 27.5887 19.162 26.9414C19.162 26.2941 18.6371 25.7695 17.9901 25.7695Z" fill="#F79901"/>
<path d="M17.9901 30.5356H10.9961C10.3488 30.5356 9.82422 31.0605 9.82422 31.7075C9.82422 32.3548 10.3488 32.8794 10.9961 32.8794H17.9901C18.6371 32.8794 19.162 32.3548 19.162 31.7075C19.162 31.0605 18.6371 30.5356 17.9901 30.5356Z" fill="#F79901"/>
<path d="M21.9258 14.0498H28.9198C29.5671 14.0498 30.0917 13.5252 30.0917 12.8779C30.0917 12.2307 29.5671 11.7061 28.9198 11.7061H21.9258C21.2788 11.7061 20.7539 12.2307 20.7539 12.8779C20.7539 13.5252 21.2788 14.0498 21.9258 14.0498Z" fill="#F79901"/>
<path d="M21.9258 18.7373H28.9198C29.5671 18.7373 30.0917 18.2127 30.0917 17.5654C30.0917 16.9182 29.5671 16.3936 28.9198 16.3936H21.9258C21.2788 16.3936 20.7539 16.9182 20.7539 17.5654C20.7539 18.2127 21.2788 18.7373 21.9258 18.7373Z" fill="#F79901"/>
<path d="M26.4662 22.2534C26.4662 21.6061 25.9416 21.0815 25.2943 21.0815H21.9258C21.2788 21.0815 20.7539 21.6061 20.7539 22.2534C20.7539 22.9007 21.2788 23.4253 21.9258 23.4253H25.2943C25.9416 23.4253 26.4662 22.9007 26.4662 22.2534Z" fill="#F79901"/>
<path d="M37.5675 31.0303C37.0627 30.6253 36.3254 30.7062 35.9201 31.211L32.902 34.9738L31.0334 33.62C30.5094 33.2401 29.7763 33.3573 29.3967 33.8813C29.0171 34.4055 29.1342 35.1383 29.6582 35.5179L32.4302 37.5263C32.6377 37.6764 32.8781 37.7494 33.1171 37.7494C33.461 37.7494 33.801 37.5983 34.0317 37.3105L37.7485 32.6776C38.1534 32.1729 38.0726 31.4353 37.5675 31.0303Z" fill="#F79901"/>
<path d="M40.5301 27.4329C39.0036 25.8796 37.0422 24.9006 34.917 24.6122V8.71954C34.917 6.11731 32.7997 4 30.1974 4H9.71985C7.11731 4 5 6.11731 5 8.71954V35.8658C5 38.4684 7.11731 40.5857 9.71954 40.5857H26.1896C28.0429 42.7628 30.7077 44 33.5907 44C38.9572 44 43.3231 39.6311 43.3231 34.2609C43.3231 31.6901 42.3312 29.2652 40.5301 27.4329ZM7.34375 35.8658V8.71954C7.34375 7.40973 8.40973 6.34375 9.71985 6.34375H30.1974C31.5076 6.34375 32.5732 7.40973 32.5732 8.71954V24.575C27.6831 25.0855 23.8583 29.2344 23.8583 34.2609C23.8583 35.6541 24.1489 37.0011 24.7061 38.2416H9.71985C8.40973 38.2416 7.34375 37.176 7.34375 35.8658ZM33.5907 41.6562C31.2503 41.6562 29.0988 40.5817 27.6874 38.7086C26.7157 37.4186 26.2018 35.8808 26.2018 34.2609C26.2018 30.1832 29.5166 26.8656 33.5907 26.8656C33.6292 26.8656 33.6679 26.8662 33.7064 26.8668L33.7244 26.8671C35.6693 26.9016 37.4927 27.6859 38.8586 29.0757C40.2261 30.467 40.9793 32.3087 40.9793 34.2609C40.9793 38.3387 37.6648 41.6562 33.5907 41.6562Z" fill="#F79901"/>
</g>
<defs>
<clipPath id="clip0_1643_10129">
<rect width="38.3594" height="40" fill="white" transform="translate(5 4)"/>
</clipPath>
</defs>
</svg>
